<svg id="Layer_5" enable-background="new 0 0 64 64" height="512" viewBox="0 0 64 64" width="512" xmlns="http://www.w3.org/2000/svg"><path d="m51.721 61c.036-.062.077-.121.106-.188.217-.488.231-1.032.039-1.531l-9.016-23.443c-.784 1.192-1.921 2.127-3.263 2.662l4.423 11.5h-14.02l4.423-11.5c-1.342-.535-2.479-1.47-3.263-2.662l-9.016 23.443c-.192.499-.178 1.043.039 1.531.03.067.07.125.106.188h-7.279-6-7v2h60v-2zm-26.015 0c.055-.093.122-.178.161-.28l2.584-6.72h17.098l2.584 6.72c.04.103.106.187.161.28z"/><path d="m30.764 17.739 3.738-1.733-1.521-4.26-3.697 1.848z"/><path d="m26.001 15c.309 0 .617-.073.894-.211l6.086-3.043 1.914-.957c.986-.493 1.388-1.697.895-2.683-.342-.683-1.027-1.106-1.79-1.106-.308 0-.617.073-.894.211l-8 4c-.478.239-.834.65-1.003 1.157s-.13 1.049.108 1.527c.341.681 1.027 1.105 1.79 1.105z"/><circle cx="37" cy="32" r="1"/><path d="m32 32c0 2.757 2.243 5 5 5s5-2.243 5-5-2.243-5-5-5-5 2.243-5 5zm8 0c0 1.654-1.346 3-3 3s-3-1.346-3-3 1.346-3 3-3 3 1.346 3 3z"/><path d="m21 35c1.103 0 2-.897 2-2v-1.247l-4 .909v.338c0 1.103.897 2 2 2z"/><path d="m11 59v-19-1h2v1 19 .004c0 1.1.897 1.996 2 1.996s2-.897 2-2v-25.884l-1.952.444c-.735.873-1.821 1.44-3.048 1.44h-5v24c0 1.103.897 2 2 2s2-.897 2-2z"/><path d="m24.973 22.627-10.819 5.013c1.107.713 1.846 1.949 1.846 3.36 0 .103-.023.199-.03.3l11.433-2.598zm-7.526 7.268-.895-1.789 1.789-.895.895 1.789zm3.577-1.79-.894-1.789 1.79-.894.894 1.789z"/><path d="m5 33h7c1.103 0 2-.897 2-2s-.897-2-2-2h-5v-2h3.78l6.22-2.883 2-.927 2.951-1.368c-1.544-2.95-4.561-4.822-7.951-4.822h-2c-4.962 0-9 4.038-9 9v5c0 1.103.897 2 2 2z"/><circle cx="13" cy="9" r="6"/><path d="m57.096 22.612c.35 1.048 1.52 1.623 2.535 1.286.509-.17.919-.526 1.158-1.004s.277-1.02.108-1.526l-4.993-13.98c-.279-.839-1.041-1.388-1.903-1.388-.215 0-.428.035-.633.103-.506.169-.917.525-1.156 1.004s-.278 1.02-.109 1.525z"/><path d="m54.913 22.449-4.197-11.752-4.184 1.939 4.296 10.741z"/><path d="m29.378 28.252 2.044-.465c1.28-1.689 3.3-2.787 5.578-2.787 1.16 0 2.252.288 3.216.789l8.637-1.963-4.139-10.348-17.923 8.306zm14.202-12.044.841 1.814-9.997 4.633-.841-1.814zm-12 5.562.841 1.814-1.992.923-.841-1.814z"/></svg>